<svg xmlns="http://www.w3.org/2000/svg" viewBox="0 0 512 512" role="img" aria-label="Tasks and Alerts icon">
  <defs>
    <linearGradient id="bg" x1="0" y1="0" x2="1" y2="1">
      <stop offset="0%" stop-color="#170022"/>
      <stop offset="100%" stop-color="#5a1b88"/>
    </linearGradient>
  </defs>
  <!-- Rounded background -->
  <rect width="512" height="512" rx="104" fill="url(#bg)"/>
  <!-- Checklist lines -->
  <rect x="172" y="148" width="168" height="22" rx="11" fill="white" opacity="0.9"/>
  <rect x="172" y="204" width="120" height="22" rx="11" fill="white" opacity="0.6"/>
  <rect x="172" y="260" width="144" height="22" rx="11" fill="white" opacity="0.9"/>
  <rect x="172" y="316" width="100" height="22" rx="11" fill="white" opacity="0.5"/>
  <!-- Check marks -->
  <circle cx="142" cy="159" r="14" fill="none" stroke="#7c67ff" stroke-width="4"/>
  <polyline points="134,159 140,165 152,153" fill="none" stroke="#7c67ff" stroke-width="4" stroke-linecap="round" stroke-linejoin="round"/>
  <circle cx="142" cy="271" r="14" fill="none" stroke="#7c67ff" stroke-width="4"/>
  <polyline points="134,271 140,277 152,265" fill="none" stroke="#7c67ff" stroke-width="4" stroke-linecap="round" stroke-linejoin="round"/>
  <!-- Bell icon for alert -->
  <path d="M310 340 a46 46 0 0 1 92 0 l8 52 H302 Z" fill="#ff93cf" opacity="0.9"/>
  <rect x="348" y="390" width="16" height="10" rx="5" fill="#ff93cf" opacity="0.9"/>
  <circle cx="356" cy="404" r="8" fill="#ff93cf" opacity="0.9"/>
</svg>
